<?xml version="1.0" encoding="UTF-8"?>
<svg id="Layer_1" data-name="Layer 1" xmlns="http://www.w3.org/2000/svg" xmlns:xlink="http://www.w3.org/1999/xlink" viewBox="0 0 500 500">
  <defs>
    <style>
      .cls-1 {
        fill: none;
      }

      .cls-2 {
        clip-path: url(#clippath);
      }

      .cls-3 {
        fill: #fff;
      }

      .cls-4 {
        fill: #e81f9c;
      }

      .cls-5 {
        fill: #b83bf2;
      }

      .cls-6 {
        fill: #191919;
      }
    </style>
    <clipPath id="clippath">
      <circle class="cls-1" cx="250" cy="250" r="59"/>
    </clipPath>
  </defs>
  <circle class="cls-6" cx="250" cy="250" r="247"/>
  <g class="cls-2">
    <g>
      <rect class="cls-5" x="164" y="166" width="86" height="86"/>
      <rect class="cls-4" x="250" y="166" width="86" height="86"/>
      <rect class="cls-4" x="164" y="252" width="86" height="86"/>
      <rect class="cls-5" x="250" y="252" width="86" height="86"/>
    </g>
  </g>
  <g>
    <path class="cls-3" d="M174.74,65.12l2.13-30.34,22.02,22.15c1.13,.96,2.57,1.28,3.69,.9l.07,.2-12.07,4.05-.07-.2c1.2-.4,2.35-2.04,1.43-2.93l-8.63-8.7-6.38,2.14-.84,12.24c.35,1.31,2.88,1.13,4,.75l.07,.2-8.18,2.75-.07-.2c1.08-.36,2.51-1.56,2.83-3Zm7.56-15.88l-4.8-4.86-.49,6.64,5.29-1.78Z"/>
    <path class="cls-3" d="M205.85,55.34l-5.28-25.26-4.14,.87c-1.66,.35-2.59,5.17-2.33,6.41l-.21,.04-.62-7.09,20.29-4.24,2.27,6.74-.21,.04c-.26-1.24-3.05-5.28-4.71-4.94l-4.14,.87,5.28,25.26c.35,1.66,1.72,2.02,2.96,1.76l.04,.21-11.18,2.34-.04-.21c1.24-.26,2.35-1.14,2.01-2.8Z"/>
    <path class="cls-3" d="M224.07,48.93c1.85-.24,3.27,.86,3.5,2.71,.25,1.93-.85,3.35-2.7,3.59-1.93,.25-3.35-.85-3.6-2.78-.24-1.85,.86-3.27,2.79-3.51Z"/>
    <path class="cls-3" d="M227.51,24.22l11.41-.57v.21c-1.26,.06-2.49,.76-2.41,2.45l1.29,25.77,8.87-.45c1.69-.08,3.36-4.7,3.3-5.97h.21s-.49,7.09-.49,7.09l-20.7,1.04v-.21c1.26-.06,2.49-.76,2.41-2.45l-1.23-24.51c-.08-1.69-1.38-2.26-2.65-2.2v-.21Z"/>
    <path class="cls-3" d="M269.25,23.56c8.98,.75,14.44,7.41,13.67,16.64-.78,9.23-7.28,14.88-16.25,14.13-8.98-.75-14.44-7.41-13.67-16.64,.78-9.23,7.28-14.88,16.25-14.13Zm-10.33,18.44c-.52,6.2,1.68,10.33,5.94,10.68,7.67,.64,11.61-10.44,12.15-16.8,.52-6.2-1.68-10.33-5.94-10.69-7.67-.64-11.62,10.44-12.15,16.81Z"/>
    <path class="cls-3" d="M286.21,53.45l6.44-26.95,14.56,24.61,4.04-16.91c.39-1.65-1.52-2.75-2.75-3.05l.05-.21,7.82,1.87-.05,.21c-1.23-.29-3.44-.17-3.83,1.48l-6.46,27.03-14.56-24.61-4.02,16.83c-.39,1.65,1.52,2.75,2.75,3.05l-.05,.21-7.82-1.87,.05-.21c1.23,.29,3.44,.17,3.83-1.48Z"/>
    <path class="cls-3" d="M337.5,43.35l.02-.04c-.91-1.4-2.19-2.43-4.12-3.18-5.96-2.3-10.69,4.08-13.04,10.15-1.98,5.13-3.22,13.5,1.32,15.25,3.87,1.49,5.85-.6,7.18-4.03l1.59-4.1c.61-1.58-.35-2.63-1.53-3.08l.08-.2,9.86,3.81-.08,.2c-1.18-.46-2.6-.32-3.21,1.26l-4.18,10.81-2.45-3.62c-1.86,1.41-4.36,1.67-7.8,.34-6.79-2.62-10.26-10.31-6.83-19.19s11.36-12.16,19.57-8.99c3.28,1.27,5.48,3.3,6.54,5.38l-1.76,6.89-.2-.08c.46-1.18,.3-5.6-.97-7.58Z"/>
    <path class="cls-3" d="M339.93,68.28c1.67,.83,2.24,2.53,1.41,4.19-.86,1.74-2.56,2.32-4.23,1.49-1.74-.86-2.32-2.56-1.45-4.31,.83-1.67,2.53-2.24,4.27-1.38Z"/>
    <path class="cls-3" d="M356.51,49.63l9.81,5.85-.11,.18c-1.09-.65-2.5-.76-3.37,.7l-13.22,22.16,7.63,4.55c1.45,.87,5.41-2.05,6.06-3.14l.18,.11-4.35,5.63-17.8-10.62,.11-.18c1.09,.65,2.5,.75,3.37-.7l12.57-21.07c.87-1.45,.1-2.65-.99-3.3l.11-.18Z"/>
    <path class="cls-3" d="M363.53,85.87l26.58-14.8-6.51,30.55c-.19,1.47,.33,2.85,1.26,3.59l-.13,.17-9.99-7.9,.13-.17c1,.79,2.99,.85,3.23-.41l2.57-11.99-5.28-4.17-10.71,5.98c-.91,1.01,.63,3.03,1.56,3.76l-.13,.17-6.77-5.35,.13-.17c.9,.71,2.68,1.25,4.06,.73Zm17.43-2.34l1.45-6.67-5.83,3.21,4.38,3.46Z"/>
    <path class="cls-3" d="M414.75,97.83c-.22-1.68-.88-3.15-2.24-4.55-2.09-2.15-5.45-1.42-7.3,.37-1.52,1.47-1.94,3.65-.82,7.11,2.12,6.73,3.35,10.37-.26,13.88-3.09,3.01-7.78,4.2-14.09-2.29-2.54-2.61-3.75-5.44-3.87-7.8l4.48-5.53,.15,.15c-.79,.77-2.21,4.04-2.33,6.4,.3,2.25,1.28,4.36,2.55,5.66,2.65,2.73,5.48,1.99,7.08,.43,1.88-1.83,1.17-4.38-.14-9.19-1.93-7.21-1.27-9.38,1.55-12.12,3.19-3.1,8.22-4.1,14.03,1.88,2.27,2.34,3.4,5.07,3.48,7.41l-4.48,5.53-.15-.15c.88-.85,2.58-4.81,2.35-7.18Z"/>
    <path class="cls-3" d="M406.05,125.6l20.42-15.78-2.59-3.35c-1.03-1.34-5.78-.08-6.79,.7l-.13-.17,6.11-3.65,12.67,16.4-5.07,4.99-.13-.17c1-.78,3.42-5.05,2.39-6.39l-2.59-3.35-20.42,15.78c-1.34,1.03-1.07,2.43-.29,3.43l-.17,.13-6.98-9.04,.17-.13c.78,1,2.05,1.62,3.39,.59Z"/>
    <path class="cls-3" d="M419.77,139.19c1.02,1.56,.65,3.31-.91,4.33-1.63,1.07-3.39,.7-4.4-.86-1.07-1.63-.7-3.39,.93-4.45,1.56-1.02,3.31-.65,4.38,.98Z"/>
    <path class="cls-3" d="M420.72,146.62l30.3-2.69-18.39,25.25c-.77,1.26-.86,2.74-.31,3.79l-.19,.1-5.91-11.28,.19-.1c.59,1.12,2.38,2,3.12,.94l7.23-9.9-3.12-5.96-12.22,1.1c-1.24,.55-.66,3.02-.11,4.07l-.19,.1-4-7.65,.19-.1c.53,1.01,1.93,2.23,3.41,2.32Zm16.88,4.96l4.04-5.51-6.63,.56,2.59,4.95Z"/>
    <path class="cls-3" d="M462.61,178.46c.39-1.4,.47-2.78,.07-4.26l-10.89,3.97c-.71,6.2-1.29,9.66-5.74,11.28-3.58,1.3-7.73,.79-10.78-5.25l-5.13,1.87-1.16-3.18,4.97-1.81c-1.04-3.22-.96-6.09-.15-8.18l6.35-3.22,.07,.2c-1.03,.38-3.67,2.78-4.75,4.88-.63,1.98-.61,4.14-.13,5.81l9.87-3.56c.08-.39,.11-.81,.19-1.2,1.18-7.37,2.68-9.08,6.37-10.43,3.73-1.36,8.12-.58,11.06,5.15l4.29-1.57,1.16,3.18-4.21,1.54c.83,2.76,.7,5.37-.12,7.34l-6.35,3.22-.07-.2c1.15-.42,4.32-3.33,5.08-5.59Zm-25.48,5.06c1.43,1.19,3.21,1.26,4.64,.74,1.43-.52,2.16-1.6,2.67-3.41l-7.31,2.67Zm23.67-12.24c-1.49-.99-3.56-1.13-5.19-.54-1.43,.52-2.51,1.64-3.15,3.58l8.34-3.04Z"/>
    <path class="cls-3" d="M441.78,194.66l29.94,5.35-24.37,19.54c-1.08,1.02-1.54,2.42-1.29,3.58l-.21,.05-2.74-12.43,.21-.05c.27,1.24,1.78,2.55,2.76,1.73l9.57-7.66-1.45-6.57-12.08-2.14c-1.34,.21-1.43,2.74-1.18,3.9l-.21,.05-1.86-8.43,.21-.05c.25,1.12,1.28,2.66,2.68,3.13Zm14.98,9.21l5.34-4.25-6.54-1.2,1.2,5.45Z"/>
    <path class="cls-3" d="M448.19,224.14l24.47-1.78c1.69-.12,2.23-1.43,2.14-2.7l.21-.02,.9,12.36c.76,10.42-2.6,14.48-7.07,14.81-4.85,.35-8.32-4.74-8.88-12.5l-.34-4.64-10.97,.8c-1.69,.12-2.23,1.43-2.14,2.7l-.21,.02-.83-11.39,.21-.02c.09,1.27,.82,2.49,2.5,2.36Zm12.92,8.52c.43,5.86,2.82,7.94,7.25,7.62,4.51-.33,6.62-3.41,6.23-8.81l-.21-2.87-13.5,.98,.22,3.08Z"/>
    <path class="cls-3" d="M459.43,261.86l-.9,10.96-3.37-.28,.9-10.96,3.37,.28Z"/>
    <path class="cls-3" d="M446.29,286.14l24.43,18.12-30.52,6.65c-1.42,.43-2.46,1.48-2.75,2.63l-.21-.05,3.08-12.35,.21,.05c-.31,1.23,.45,3.08,1.71,2.78l11.98-2.6,1.63-6.53-9.87-7.3c-1.29-.41-2.5,1.82-2.79,2.97l-.21-.05,2.09-8.37,.21,.05c-.28,1.11-.04,2.95,1.01,4Zm9.32,14.92l6.68-1.43-5.33-3.99-1.35,5.42Z"/>
    <path class="cls-3" d="M437.82,317.61l24.14,9.13,1.5-3.96c.6-1.58-2.96-4.96-4.15-5.41l.07-.2,6.31,3.29-7.33,19.39-6.91-1.71,.08-.2c1.19,.45,6.09,.27,6.69-1.31l1.5-3.96-24.14-9.13c-1.58-.6-2.62,.36-3.07,1.55l-.2-.08,4.04-10.68,.2,.08c-.45,1.19-.3,2.6,1.28,3.2Z"/>
    <path class="cls-3" d="M433.42,336.42c-.79,1.68-2.48,2.29-4.17,1.49-1.76-.83-2.37-2.52-1.57-4.2,.83-1.76,2.52-2.37,4.28-1.54,1.68,.79,2.29,2.48,1.46,4.24Z"/>
    <path class="cls-3" d="M452.39,352.63l-5.66,9.92-.18-.1c.63-1.1,.71-2.52-.76-3.36l-22.41-12.79-4.4,7.72c-.84,1.47,2.15,5.37,3.25,6l-.1,.18-5.72-4.24,10.27-18,.18,.11c-.63,1.1-.71,2.52,.76,3.36l21.31,12.16c1.47,.84,2.65,.05,3.28-1.05l.18,.1Z"/>
    <path class="cls-3" d="M430.43,388.16c-5.48,7.15-14.04,8.16-21.39,2.52-7.35-5.64-8.6-14.16-3.11-21.31s14.04-8.16,21.39-2.52,8.6,14.16,3.11,21.31Zm-9.95-18.66c-4.93-3.78-9.6-4.16-12.2-.77-4.68,6.11,2.52,15.42,7.59,19.3,4.93,3.78,9.6,4.16,12.2,.77,4.69-6.11-2.52-15.42-7.59-19.3Z"/>
    <path class="cls-3" d="M396.12,386.29l19.24,19.94-28.58-.99,12.07,12.51c1.17,1.22,3.14,.21,4.05-.68l.15,.15-5.78,5.58-.15-.15c.91-.88,1.99-2.81,.82-4.02l-19.3-20,28.58,.99-12.01-12.45c-1.17-1.22-3.14-.21-4.05,.67l-.15-.15,5.78-5.58,.15,.15c-.91,.88-1.99,2.81-.82,4.02Z"/>
    <path class="cls-3" d="M377.02,434.96l.02,.03c1.67-.02,3.23-.54,4.9-1.77,5.15-3.79,2.31-11.21-1.55-16.45-3.26-4.43-9.65-9.97-13.57-7.09-3.34,2.46-2.65,5.25-.46,8.22l2.61,3.54c1,1.36,2.4,1.12,3.42,.37l.13,.17-8.52,6.27-.13-.17c1.02-.75,1.67-2.02,.67-3.38l-6.87-9.34,4.38-.12c-.19-2.33,.94-4.58,3.9-6.76,5.86-4.31,14.21-3.1,19.85,4.56,5.64,7.67,4.14,16.12-2.95,21.34-2.83,2.08-5.73,2.85-8.05,2.62l-4.87-5.19,.17-.13c.75,1.02,4.56,3.27,6.92,3.26Z"/>
    <path class="cls-3" d="M354.69,423.62c-1.59,.96-3.33,.53-4.3-1.06-1.01-1.67-.58-3.41,1.02-4.37,1.66-1.01,3.41-.58,4.41,1.09,.96,1.59,.53,3.33-1.13,4.34Z"/>
    <path class="cls-3" d="M361.51,447.62l-10.2,5.13-.1-.19c1.13-.57,1.98-1.71,1.22-3.22l-11.59-23.06-7.94,3.99c-1.51,.76-1.18,5.66-.61,6.79l-.19,.09-2.42-6.69,18.52-9.31,.09,.19c-1.13,.57-1.98,1.71-1.22,3.22l11.02,21.92c.76,1.51,2.18,1.51,3.31,.94l.09,.19Z"/>
    <path class="cls-3" d="M327.2,434.07l-1.82,30.36-22.25-21.92c-1.14-.95-2.58-1.25-3.7-.86l-.07-.2,12.03-4.17,.07,.2c-1.2,.42-2.33,2.06-1.4,2.95l8.72,8.62,6.35-2.21,.72-12.25c-.36-1.31-2.89-1.1-4.01-.71l-.07-.2,8.15-2.83,.07,.2c-1.08,.37-2.5,1.58-2.8,3.03Zm-7.4,15.96l4.85,4.81,.43-6.64-5.27,1.83Z"/>
    <path class="cls-3" d="M289.52,470.8c1.53,.72,3.13,.96,5.04,.57,2.94-.6,4.14-3.83,3.62-6.35-.42-2.07-2.03-3.6-5.54-4.52-6.81-1.85-10.54-2.77-11.55-7.7-.86-4.23,.66-8.81,9.53-10.62,3.56-.73,6.6-.23,8.66,.95l2.24,6.75-.21,.04c-.22-1.08-2.21-4.04-4.13-5.42-2.05-.96-4.36-1.27-6.14-.9-3.73,.76-4.63,3.54-4.18,5.73,.52,2.57,3.06,3.35,7.81,4.84,7.11,2.26,8.59,3.99,9.37,7.84,.89,4.35-.98,9.14-9.15,10.81-3.19,.65-6.1,.12-8.12-1.06l-2.24-6.75,.21-.04c.25,1.2,2.66,4.77,4.78,5.84Z"/>
    <path class="cls-3" d="M270.84,448.49l2.26,25.71,4.21-.37c1.69-.15,3.19-4.82,3.07-6.09l.21-.02-.22,7.11-20.65,1.82-1.46-6.96,.21-.02c.11,1.26,2.4,5.61,4.09,5.46l4.21-.37-2.26-25.71c-.15-1.69-1.47-2.21-2.73-2.09l-.02-.21,11.38-1,.02,.21c-1.26,.11-2.47,.86-2.32,2.54Z"/>
    <path class="cls-3" d="M252,452.7c-1.86,.03-3.15-1.22-3.18-3.08-.03-1.95,1.22-3.24,3.08-3.27,1.95-.03,3.23,1.22,3.27,3.16,.03,1.86-1.22,3.15-3.16,3.18Z"/>
    <path class="cls-3" d="M245.2,449.49l-14.04,26.98-11.38-29.09c-.65-1.33-1.85-2.2-3.03-2.3l.02-.21,12.69,1.09-.02,.21c-1.26-.11-2.97,.93-2.48,2.12l4.45,11.42,6.7,.58,5.65-10.89c.2-1.34-2.19-2.18-3.37-2.29l.02-.21,8.6,.74-.02,.21c-1.14-.1-2.92,.43-3.79,1.63Zm-13.27,11.55l2.47,6.37,3.1-5.89-5.56-.48Z"/>
    <path class="cls-3" d="M195.81,467.68c.97,1.08,2.09,1.89,3.55,2.35l2.5-11.32c-4.85-3.93-7.45-6.28-6.42-10.91,.82-3.72,3.49-6.94,10.23-6.27l1.18-5.33,3.3,.73-1.14,5.16c3.28,.86,5.65,2.46,6.98,4.28l-.7,7.08-.21-.05c.24-1.07-.37-4.59-1.57-6.63-1.34-1.6-3.16-2.74-4.83-3.24l-2.31,10.23c.28,.28,.62,.53,.9,.81,5.57,4.96,6.22,7.14,5.37,10.98-.86,3.88-3.88,7.16-10.29,6.56l-.99,4.46-3.3-.73,.97-4.38c-2.77-.79-4.91-2.3-6.12-4.04l.7-7.08,.21,.05c-.27,1.2,.49,5.44,1.98,7.28Zm9.43-24.21c-1.77,.56-2.79,2.03-3.12,3.51-.33,1.49,.19,2.68,1.44,4.09l1.68-7.6Zm-2.41,26.55c1.63-.72,2.87-2.4,3.25-4.09,.33-1.49-.03-3-1.33-4.58l-1.92,8.67Z"/>
    <path class="cls-3" d="M193.37,441.41l-20.61,22.37-3.38-31.05c-.28-1.45-1.21-2.6-2.32-3.01l.07-.2,11.96,4.37-.07,.2c-1.19-.44-3.11,.12-2.94,1.4l1.31,12.19,6.32,2.31,8.3-9.04c.54-1.24-1.54-2.68-2.66-3.09l.07-.2,8.11,2.96-.07,.2c-1.07-.39-2.93-.35-4.09,.58Zm-15.83,7.68l.71,6.79,4.53-4.88-5.25-1.92Z"/>
    <path class="cls-3" d="M165.06,430.96l-11.67,21.58c-.81,1.49,0,2.65,1.12,3.25l-.1,.19-10.9-5.9c-9.19-4.97-10.81-9.98-8.67-13.92,2.31-4.28,8.47-4.46,15.32-.75l4.09,2.21,5.23-9.67c.8-1.49,0-2.65-1.13-3.25l.1-.19,10.04,5.43-.1,.19c-1.12-.6-2.53-.65-3.34,.84Zm-14.13,6.3c-5.17-2.8-8.21-1.89-10.32,2.01-2.15,3.98-.69,7.42,4.07,9.99l2.53,1.37,6.44-11.9-2.72-1.47Z"/>
    <path class="cls-3" d="M127.24,420.1l-8.74-6.67,2.05-2.69,8.74,6.67-2.05,2.69Z"/>
    <path class="cls-3" d="M121.96,403.06l-27.81,12.33,9.25-29.83c.32-1.45-.07-2.87-.93-3.69l.15-.15,9.23,8.77-.15,.15c-.92-.87-2.9-1.12-3.26,.11l-3.65,11.7,4.88,4.63,11.21-4.99c.99-.92-.35-3.07-1.21-3.89l.15-.15,6.26,5.94-.15,.15c-.83-.79-2.55-1.49-3.98-1.09Zm-17.57,.75l-2.05,6.52,6.09-2.67-4.05-3.85Z"/>
    <path class="cls-3" d="M98.73,380.17l-19.82,16.53,2.71,3.25c1.08,1.3,5.78-.14,6.75-.95l.14,.16-5.97,3.88-13.28-15.92,4.88-5.18,.14,.16c-.97,.81-3.23,5.17-2.15,6.47l2.71,3.25,19.82-16.53c1.3-1.08,.97-2.46,.16-3.44l.16-.14,7.32,8.77-.16,.14c-.81-.97-2.11-1.54-3.41-.46Z"/>
    <path class="cls-3" d="M84.51,367.1c-1.08-1.52-.78-3.29,.74-4.36,1.59-1.13,3.36-.83,4.43,.69,1.13,1.59,.82,3.36-.76,4.48-1.52,1.08-3.29,.78-4.41-.81Z"/>
    <path class="cls-3" d="M61.07,375.64l-5.86-9.8,.18-.11c.65,1.09,1.85,1.85,3.3,.98l22.14-13.25-4.56-7.62c-.87-1.45-5.73-.76-6.82-.11l-.11-.18,6.5-2.9,10.64,17.79-.18,.11c-.65-1.09-1.85-1.85-3.3-.98l-21.05,12.59c-1.45,.87-1.35,2.28-.69,3.37l-.18,.11Z"/>
    <path class="cls-3" d="M40.88,339.06c-3.53-8.29-.21-16.23,8.31-19.87,8.52-3.63,16.56-.53,20.09,7.76,3.53,8.29,.21,16.24-8.31,19.87-8.52,3.63-16.56,.53-20.09-7.76Zm21.14,.51c5.72-2.44,8.34-6.32,6.67-10.25-3.02-7.08-14.66-5.38-20.54-2.88-5.72,2.44-8.34,6.31-6.67,10.25,3.02,7.08,14.66,5.38,20.54,2.88Z"/>
    <path class="cls-3" d="M59.38,310.11l-26.83,6.91,14.96-24.38-16.84,4.33c-1.64,.42-1.73,2.63-1.41,3.86l-.2,.05-2-7.78,.2-.05c.32,1.23,1.46,3.12,3.1,2.7l26.92-6.93-14.96,24.38,16.76-4.31c1.64-.42,1.73-2.63,1.41-3.86l.2-.05,2,7.78-.2,.05c-.32-1.23-1.46-3.12-3.1-2.7Z"/>
    <path class="cls-3" d="M26.48,269.49h-.04c-.81,1.46-1.13,3.08-.88,5.14,.75,6.34,8.6,7.54,15.07,6.78,5.46-.65,13.43-3.46,12.86-8.29-.49-4.12-3.26-4.9-6.92-4.46l-4.37,.52c-1.68,.2-2.16,1.53-2.01,2.79l-.21,.03-1.24-10.5,.21-.02c.15,1.26,.93,2.45,2.61,2.25l11.51-1.36-2.06,3.86c2.12,.98,3.52,3.08,3.95,6.73,.86,7.23-4.32,13.89-13.77,15.01s-16.06-4.36-17.1-13.1c-.41-3.49,.35-6.39,1.7-8.29l6.92-1.67,.02,.21c-1.26,.15-5.09,2.35-6.25,4.4Z"/>
    <path class="cls-3" d="M47.37,255.68c-.05-1.86,1.18-3.16,3.04-3.22,1.94-.05,3.25,1.18,3.3,3.04,.05,1.95-1.18,3.25-3.12,3.3-1.86,.05-3.16-1.18-3.22-3.13Z"/>
    <path class="cls-3" d="M23.13,249.8l.56-11.41h.21c-.06,1.28,.51,2.58,2.2,2.66l25.77,1.26,.43-8.87c.08-1.69-4.35-3.81-5.61-3.87v-.21s7.02,1.19,7.02,1.19l-1.01,20.7h-.21c.06-1.28-.51-2.58-2.2-2.66l-24.51-1.19c-1.69-.08-2.39,1.15-2.45,2.42h-.21Z"/>
    <path class="cls-3" d="M51.81,226.57l-25.55-16.5,30.03-8.61c1.38-.52,2.36-1.64,2.57-2.8l.21,.04-2.27,12.53-.21-.04c.23-1.25-.65-3.04-1.88-2.66l-11.79,3.36-1.2,6.62,10.32,6.65c1.32,.32,2.38-1.98,2.59-3.14l.21,.04-1.54,8.49-.21-.04c.2-1.12-.15-2.95-1.27-3.93Zm-10.26-14.29l-6.57,1.86,5.58,3.63,1-5.49Z"/>
    <path class="cls-3" d="M38.34,175.69c-1.38,.98-2.37,2.26-2.97,4.11-.92,2.86,1.3,5.48,3.75,6.28,2.01,.65,4.13,0,6.66-2.61,4.95-5.02,7.59-7.82,12.38-6.27,4.11,1.32,7.35,4.9,4.57,13.52-1.12,3.46-3.05,5.86-5.08,7.07l-6.98-1.36,.06-.2c1.05,.34,4.6,.06,6.75-.94,1.85-1.32,3.25-3.17,3.8-4.91,1.17-3.62-.81-5.77-2.94-6.46-2.5-.81-4.42,1.02-8.05,4.43-5.46,5.08-7.69,5.52-11.43,4.31-4.23-1.36-7.48-5.34-4.92-13.27,1-3.1,2.89-5.38,4.91-6.55l6.98,1.36-.06,.2c-1.17-.38-5.46-.03-7.44,1.29Z"/>
    <path class="cls-3" d="M66.94,170.41l-23.49-10.68-1.75,3.85c-.7,1.54,2.63,5.15,3.79,5.67l-.09,.19-6.08-3.69,8.58-18.87,6.78,2.15-.09,.19c-1.16-.52-6.06-.66-6.76,.88l-1.75,3.85,23.49,10.68c1.54,.7,2.64-.19,3.17-1.35l.19,.09-4.73,10.4-.19-.09c.52-1.16,.47-2.57-1.07-3.27Z"/>
    <path class="cls-3" d="M72.55,151.92c.9-1.63,2.63-2.12,4.25-1.22,1.7,.94,2.2,2.67,1.3,4.3-.94,1.7-2.67,2.2-4.37,1.25-1.63-.9-2.12-2.63-1.18-4.33Z"/>
    <path class="cls-3" d="M78.68,147.62l-16.52-25.54,30.91,4.47c1.48,.09,2.82-.52,3.49-1.5l.17,.12-7.22,10.49-.17-.12c.72-1.05,.65-3.04-.62-3.2l-12.13-1.77-3.81,5.54,6.68,10.29c1.07,.84,2.98-.83,3.65-1.8l.17,.12-4.89,7.11-.17-.12c.65-.94,1.07-2.75,.46-4.1Zm-3.49-17.24l-6.76-1,3.59,5.6,3.16-4.6Z"/>
    <path class="cls-3" d="M87.25,95.69c-1.42,.31-2.68,.89-3.79,1.93l8.61,7.76c5.81-2.28,9.14-3.38,12.66-.2,2.83,2.55,4.32,6.46,.41,11.99l4.05,3.66-2.27,2.51-3.93-3.54c-2.36,2.43-4.93,3.7-7.16,3.96l-5.81-4.1,.14-.16c.82,.74,4.17,1.94,6.54,1.91,2.05-.38,3.94-1.4,5.2-2.6l-7.76-7.06c-.38,.11-.76,.28-1.15,.39-7.07,2.4-9.28,1.89-12.2-.75-2.95-2.66-4.31-6.91-.63-12.19l-3.39-3.06,2.27-2.51,3.33,3c2.05-2.02,4.42-3.13,6.54-3.33l5.81,4.1-.14,.16c-.91-.82-4.97-2.26-7.32-1.87Zm-5.5,4.96c-.18,1.78,.67,3.68,1.96,4.84,1.13,1.02,2.62,1.45,4.64,1.11l-6.6-5.95Zm21.9,15.2c.39-1.82-.39-3.43-1.52-4.45-1.13-1.02-2.43-1.16-4.26-.77l5.78,5.21Z"/>
    <path class="cls-3" d="M111.31,106.52l-9.34-28.95,28.7,12.34c1.4,.47,2.86,.23,3.76-.54l.14,.16-9.69,8.26-.14-.16c.97-.82,1.42-2.77,.23-3.25l-11.26-4.86-5.12,4.36,3.78,11.68c.81,1.09,3.09-.02,3.99-.79l.14,.16-6.57,5.6-.14-.16c.87-.74,1.75-2.38,1.51-3.84Zm1.1-17.56l-6.27-2.72,2.02,6.34,4.25-3.62Z"/>
    <path class="cls-3" d="M134.33,87.01l-13.07-20.76c-.9-1.43-2.31-1.29-3.39-.62l-.11-.18,10.49-6.6c8.84-5.57,14-4.52,16.39-.72,2.59,4.12-.27,9.57-6.86,13.72l-3.94,2.48,5.86,9.31c.9,1.43,2.31,1.29,3.39,.62l.11,.18-9.67,6.08-.11-.18c1.07-.68,1.81-1.89,.91-3.32Zm1.45-15.41c4.98-3.13,5.68-6.22,3.31-9.98-2.41-3.83-6.12-4.24-10.7-1.36l-2.43,1.53,7.21,11.46,2.61-1.65Z"/>
    <path class="cls-3" d="M152.23,64.37l9.86-4.88,1.5,3.03-9.86,4.88-1.5-3.03Z"/>
  </g>
  <circle class="cls-6" cx="250" cy="252" r="16"/>
</svg>