<?xml version="1.0" encoding="UTF-8"?>
<svg id="Layer_1" data-name="Layer 1" xmlns="http://www.w3.org/2000/svg" viewBox="0 0 500 500">
  <defs>
    <style>
      .cls-1 {
        fill: #fff;
      }

      .cls-2 {
        fill: #191919;
      }

      .cls-3 {
        fill: #520f6d;
      }
    </style>
  </defs>
  <path class="cls-3" d="M497,250c0,9.41-.53,18.7-1.55,27.84-2.17,19.28-6.55,37.89-12.9,55.57-7.1,19.82-16.67,38.47-28.34,55.57-14.35,21.05-31.87,39.76-51.87,55.45-.05,.04-.1,.08-.15,.11-41.94,32.87-94.78,52.46-152.19,52.46s-110.25-19.59-152.19-52.46c-.05-.03-.1-.07-.15-.11-20-15.69-37.52-34.4-51.87-55.45-11.67-17.1-21.24-35.75-28.34-55.57-6.35-17.68-10.73-36.29-12.9-55.57-1.02-9.14-1.55-18.43-1.55-27.84s.52-18.63,1.54-27.73c2.15-19.28,6.53-37.89,12.87-55.57,7.09-19.82,16.65-38.46,28.3-55.56,14.36-21.1,31.91-39.85,51.95-55.57C139.62,22.64,192.52,3,250,3s110.38,19.64,152.34,52.57c20.04,15.72,37.59,34.47,51.95,55.57,11.65,17.1,21.21,35.74,28.3,55.56,6.34,17.68,10.72,36.29,12.87,55.57,1.02,9.1,1.54,18.36,1.54,27.73Z"/>
  <path class="cls-1" d="M402.34,55.57H97.66C139.62,22.64,192.52,3,250,3s110.38,19.64,152.34,52.57Z"/>
  <path class="cls-1" d="M482.59,166.7H17.41c7.09-19.82,16.65-38.46,28.3-55.56H454.29c11.65,17.1,21.21,35.74,28.3,55.56Z"/>
  <path class="cls-1" d="M482.55,333.41c-7.1,19.82-16.67,38.47-28.34,55.57H45.79c-11.67-17.1-21.24-35.75-28.34-55.57H482.55Z"/>
  <path class="cls-1" d="M402.34,444.43c-.05,.04-.1,.08-.15,.11-41.94,32.87-94.78,52.46-152.19,52.46s-110.25-19.59-152.19-52.46H-14v-.11H402.34Z"/>
  <path class="cls-1" d="M497,250c0,9.41-.53,18.7-1.55,27.84H4.55c-1.02-9.14-1.55-18.43-1.55-27.84s.52-18.63,1.54-27.73H495.46c1.02,9.1,1.54,18.36,1.54,27.73Z"/>
  <circle class="cls-2" cx="250" cy="250" r="59"/>
  <circle class="cls-1" cx="250" cy="250" r="6"/>
</svg>